<svg width="100" height="100" viewBox="0 0 100 100" fill="none" xmlns="http://www.w3.org/2000/svg">
<circle cx="50" cy="50" r="50" fill="white"/>
<path d="M75.8249 61.4463C75.2459 58.4373 73.393 56.2384 70.7874 54.4445C69.0503 53.5187 66.7921 53.0557 64.1286 52.9979C61.8125 52.5928 59.9018 51.1462 58.57 48.4843C57.6436 46.4012 57.8173 44.2601 58.7437 41.9455C59.6123 40.6146 60.0755 39.11 60.1913 37.5477C60.4229 33.7864 59.3807 30.3723 55.5591 27.7105C52.7798 26.0323 49.9426 25.5116 46.9317 26.4953C44.0945 27.3054 41.7784 29.2728 40.4466 31.8768C39.1728 35.6381 39.5202 39.11 41.1994 42.1769C41.7205 43.1607 41.9521 44.2023 41.9521 45.3017C42.0679 48.6579 39.9255 51.7248 36.7409 52.7085C35.3512 52.9979 33.9616 53.1715 32.5719 53.2293C29.7926 53.7501 27.4186 55.3125 25.5079 57.9743C24.0603 60.4047 23.655 63.2401 24.2919 65.9598C24.9288 68.2166 26.2606 70.2419 28.0556 71.7464C30.3717 73.4245 33.2668 74.0611 36.104 73.656C38.3043 73.251 40.2729 72.1515 41.7784 70.5313C42.7048 69.4318 43.5734 68.2745 44.3261 67.0593C45.9473 65.5548 48.1476 64.7447 50.3479 64.8604C52.3166 64.9761 54.1116 65.7862 55.4433 67.2329L57.7594 70.4155C59.7281 72.4987 62.4495 73.7717 65.3446 73.8875C68.4134 74.0032 71.3664 72.7302 73.393 70.4155C75.5354 68.1009 76.4039 65.1497 75.8249 61.4463ZM34.1353 70.9363C30.14 70.9363 26.8975 67.638 26.8975 63.6452C26.8975 59.6525 30.1979 56.412 34.1932 56.412C38.1885 56.412 41.431 59.6525 41.431 63.6452C41.431 67.638 38.1305 70.8784 34.1353 70.9363ZM49.9426 29.0992C53.9378 29.0992 57.2383 32.3397 57.2383 36.3904C57.2383 40.441 53.9958 43.6815 49.9426 43.6815C45.9473 43.6815 42.6469 40.441 42.6469 36.3904C42.7048 32.3397 45.9473 29.0992 49.9426 29.0992ZM50.0005 62.1407C45.8315 62.1407 42.4732 58.7845 42.4732 54.676C42.4732 50.5096 45.8315 47.1534 49.9426 47.1534C54.1116 47.1534 57.4699 50.5096 57.4699 54.6181C57.4699 58.7845 54.1695 62.1407 50.0005 62.1407ZM65.8078 71.052C61.8125 71.052 58.5121 67.8116 58.5121 63.8188C58.5121 59.8261 61.7546 56.5277 65.7499 56.5277C69.7451 56.5277 73.0456 59.7682 73.0456 63.7609C73.0456 67.7537 69.803 71.052 65.8078 71.052Z" fill="black"/>
</svg>
