<svg width="52" height="48" viewBox="0 0 52 48" fill="none" xmlns="http://www.w3.org/2000/svg">
<path d="M51.8249 35.4463C51.2459 32.4373 49.393 30.2384 46.7874 28.4445C45.0503 27.5187 42.7921 27.0557 40.1286 26.9979C37.8125 26.5928 35.9018 25.1462 34.57 22.4843C33.6436 20.4012 33.8173 18.2601 34.7437 15.9455C35.6123 14.6146 36.0755 13.11 36.1913 11.5477C36.4229 7.78638 35.3807 4.37229 31.5591 1.71046C28.7798 0.0323488 25.9426 -0.488445 22.9317 0.495276C20.0945 1.3054 17.7784 3.27284 16.4466 5.87681C15.1728 9.63809 15.5202 13.11 17.1994 16.1769C17.7205 17.1607 17.9521 18.2023 17.9521 19.3017C18.0679 22.6579 15.9255 25.7248 12.7409 26.7085C11.3512 26.9979 9.96159 27.1715 8.57194 27.2293C5.79263 27.7501 3.41864 29.3125 1.50787 31.9743C0.0603147 34.4047 -0.345001 37.2401 0.291924 39.9598C0.928848 42.2166 2.2606 44.2419 4.05557 45.7464C6.37165 47.4245 9.26676 48.0611 12.104 47.656C14.3043 47.251 16.2729 46.1515 17.7784 44.5313C18.7048 43.4318 19.5734 42.2745 20.3261 41.0593C21.9473 39.5548 24.1476 38.7447 26.3479 38.8604C28.3166 38.9761 30.1116 39.7862 31.4433 41.2329L33.7594 44.4155C35.7281 46.4987 38.4495 47.7717 41.3446 47.8875C44.4134 48.0032 47.3664 46.7302 49.393 44.4155C51.5354 42.1009 52.4039 39.1497 51.8249 35.4463ZM10.1353 44.9363C6.14005 44.9363 2.89752 41.638 2.89752 37.6452C2.89752 33.6525 6.19795 30.412 10.1932 30.412C14.1885 30.412 17.431 33.6525 17.431 37.6452C17.431 41.638 14.1305 44.8784 10.1353 44.9363ZM25.9426 3.09924C29.9378 3.09924 33.2383 6.33974 33.2383 10.3904C33.2383 14.441 29.9958 17.6815 25.9426 17.6815C21.9473 17.6815 18.6469 14.441 18.6469 10.3904C18.7048 6.33974 21.9473 3.09924 25.9426 3.09924ZM26.0005 36.1407C21.8315 36.1407 18.4732 32.7845 18.4732 28.676C18.4732 24.5096 21.8315 21.1534 25.9426 21.1534C30.1116 21.1534 33.4699 24.5096 33.4699 28.6181C33.4699 32.7845 30.1695 36.1407 26.0005 36.1407ZM41.8078 45.052C37.8125 45.052 34.5121 41.8116 34.5121 37.8188C34.5121 33.8261 37.7546 30.5277 41.7499 30.5277C45.7451 30.5277 49.0456 33.7682 49.0456 37.7609C49.0456 41.7537 45.803 45.052 41.8078 45.052Z" fill="white"/>
</svg>
