<svg width="49" height="49" viewBox="0 0 49 49" fill="none" xmlns="http://www.w3.org/2000/svg">
<path d="M43.7789 0.11721L35.2246 0.0210939C34.0762 0.00819056 33.0212 0.652042 32.5076 1.67926L28.8827 8.92919C27.8853 10.9239 29.3358 13.2708 31.566 13.2708H40.3077C41.461 13.2708 42.5122 12.6097 43.0117 11.5702L46.4492 4.41635C47.3999 2.43795 45.9737 0.141871 43.7789 0.11721Z" fill="url(#paint0_linear_27_2)"/>
<path d="M21.6549 43.4799L2.17082 4.51178C1.17347 2.51707 2.62396 0.170135 4.85411 0.170135H19.1528C21.3788 0.170135 22.8295 2.50905 21.8404 4.50317L15.5902 17.1045C14.6011 19.0986 16.0518 21.4375 18.2777 21.4375H33.2435C35.4769 21.4375 36.9272 23.7907 35.9235 25.7858L27.0181 43.4866C25.9086 45.6919 22.7589 45.688 21.6549 43.4799Z" fill="url(#paint1_linear_27_2)"/>
<defs>
<linearGradient id="paint0_linear_27_2" x1="47.2987" y1="-5.34307e-07" x2="27.3924" y2="13.2708" gradientUnits="userSpaceOnUse">
<stop stop-color="#92FFFF"/>
<stop offset="1" stop-color="#EDFDF3"/>
</linearGradient>
<linearGradient id="paint1_linear_27_2" x1="4" y1="1" x2="24.5" y2="46" gradientUnits="userSpaceOnUse">
<stop stop-color="#9400FF"/>
<stop offset="0.395833" stop-color="#F5F7FF"/>
<stop offset="0.556283" stop-color="white"/>
<stop offset="0.869792" stop-color="#FE4DB7"/>
<stop offset="0.96875" stop-color="#FF005C"/>
</linearGradient>
</defs>
</svg>
